PathFileType	4	(X/Y/Z)	ScaleMarkers.trc																																																																																								
DataRate	CameraRate	NumFrames	NumMarkers	Units	OrigDataRate	OrigDataStartFrame	OrigNumFrames																																																																																				
100	100	5	30	mm	100	88 100																																																																																					
Frame#	Time	Thumb_MCP_L			Thumb_PIP_L			Thumb_DIP_L			Thumb_TIP_L			Index_MCP_L			Index_PIP_L			Index_DIP_L			Index_TIP_L			Middle_MCP_L			Middle_PIP_L			Middle_DIP_L			Middle_TIP_L			Ring_MCP_L			Ring_PIP_L			Ring_DIP_L			Ring_TIP_L			Little_MCP_L			Little_PIP_L			Little_DIP_L			Little_TIP_L			Wrist_L			Elbow_L			Point_W1_L			Point_E1_L			Shoulder_L			Point_F1_L			Point_F2_L			Point_F3_L			Point_F4_L			Point_F5_L		
		X1	Y1	Z1	X2	Y2	Z2	X3	Y3	Z3	X4	Y4	Z4	X5	Y5	Z5	X6	Y6	Z6	X7	Y7	Z7	X8	Y8	Z8	X9	Y9	Z9	X10	Y10	Z10	X11	Y11	Z11	X12	Y12	Z12	X13	Y13	Z13	X14	Y14	Z14	X15	Y15	Z15	X16	Y16	Z16	X17	Y17	Z17	X18	Y18	Z18	X19	Y19	Z19	X20	Y20	Z20	X21	Y21	Z21	X22	Y22	Z22	X23	Y23	Z23	X24	Y24	Z24	X25	Y25	Z25	X26	Y26	Z26	X27	Y27	Z27	X28	Y28	Z28	X29	Y29	Z29	X30	Y30	Z30
88	14.61348617	192.6142953	-111.3482113	-164.9374368	198.3531216	-102.9521332	-152.5857838	207.5521185	-112.6896509	-148.5099001	216.0483613	-124.9554531	-146.9723474	198.0478719	-113.4795052	-183.707549	220.366853	-120.6992876	-165.0081565	211.858484	-137.2982189	-157.7898675	203.6695567	-152.1250974	-151.6952815	193.8465744	-117.2101698	-184.4606072	221.6607578	-131.2134976	-177.0838487	212.3133319	-147.6261094	-163.9516108	200.1605758	-159.7487912	-153.6878824	190.8939806	-121.8241776	-190.2185816	221.0396195	-131.0073124	-184.6648633	212.1004929	-147.0249977	-172.5250993	200.9534868	-160.185483	-162.3994312	188.4612352	-122.1106329	-190.4524811	210.9806044	-126.379767	-192.3768624	211.1616239	-138.1079239	-186.7765367	195.4996547	-146.4564392	-180.002018	157.7015804	-102.2712734	-163.8864569	-38.58401658	-127.8170427	-135.1815296	167.6149578	-85.33678784	-160.0226216	-34.77258398	-142.6146744	-122.2782765	0	0	0	206.4659659	-103.2501947	-176.8749718	206.7085484	-124.2095992	-198.1875969	192.1376698	-129.0619687	-200.4823374	190.2564985	-133.6690059	-206.3175868	185.3201432	-130.6610003	-208.2568555
89	14.62348617	192.6033226	-111.3695018	-164.9401868	198.3335103	-102.9703373	-152.5872988	207.5428773	-112.6936698	-148.5101267	216.0420223	-124.9584055	-146.9791526	198.0303723	-113.4984958	-183.7138962	220.3718847	-120.6798447	-165.0257794	211.8757986	-137.272682	-157.7829938	203.6666686	-152.0911453	-151.6897261	193.8293101	-117.2300741	-184.4654835	221.6569713	-131.2079479	-177.0971203	212.2836315	-147.6005507	-163.9692756	200.1314875	-159.7227781	-153.705583	190.8752545	-121.8444444	-190.2224528	221.0119023	-131.0323832	-184.6183957	212.1213427	-147.0649801	-172.4536702	200.9672821	-160.2175722	-162.3243125	188.4424636	-122.1314354	-190.4552709	210.964469	-126.3764744	-192.3854241	211.1701549	-138.1050209	-186.7812439	195.5011231	-146.4495185	-180.0063838	157.6897595	-102.3012551	-163.8745069	-38.54811652	-127.9494164	-135.0661741	167.6022319	-85.36465929	-160.0136679	-34.71991378	-142.7342646	-122.152925	0	0	0	206.4519872	-103.2618209	-176.878409	206.6828013	-124.2501743	-198.1904809	192.1210825	-129.0791012	-200.4866081	190.2498725	-133.7077035	-206.3140962	185.3035743	-130.6925874	-208.2570709
90	14.63348617	192.5289666	-111.3998097	-164.9111176	198.2860485	-102.9975311	-152.5714479	207.5064093	-112.7160838	-148.5055746	216.0124986	-124.9772708	-146.9866521	197.9382577	-113.530042	-183.6898701	220.321675	-120.4550488	-164.9557086	212.1208594	-137.0974178	-157.486574	203.8409881	-151.8900208	-151.4439519	193.7378658	-117.2632383	-184.4367868	221.6111601	-131.2094138	-177.1988535	212.1430473	-147.5653739	-164.0909154	199.9924465	-159.6831423	-153.816557	190.7798649	-121.8796394	-190.1901893	220.9145371	-131.0509587	-184.555039	212.1372577	-147.1112695	-172.3472614	200.9730665	-160.2486365	-162.2096125	188.3469541	-122.1675259	-190.4205669	210.8783918	-126.3400442	-192.39742	211.1766569	-138.0728951	-186.8066556	195.5004656	-146.3996094	-180.0298915	157.6130534	-102.3433191	-163.8122516	-38.44549789	-128.7096295	-134.3723011	167.5229344	-85.40275145	-159.9635925	-34.51927648	-143.4207859	-121.4042031	0	0	0	206.3512698	-103.2934705	-176.879361	206.6671573	-124.3033454	-198.1038576	191.9775909	-129.09276	-200.4666114	190.1671458	-133.7641744	-206.2646245	185.199576	-130.7284657	-208.2191753
91	14.64348617	192.5391823	-111.4274166	-164.9166961	198.2854313	-103.0118773	-152.5808004	207.5113975	-112.7201208	-148.5071094	216.0180914	-124.9817704	-146.9940134	197.9451193	-113.5603038	-183.696025	220.5343088	-120.6417989	-165.2600366	211.7998373	-137.1342455	-158.0973112	203.5146645	-151.8912205	-151.9778394	193.7442762	-117.2932304	-184.4417903	221.6010909	-131.2996865	-177.2550313	212.1630797	-147.6620258	-164.1277247	200.004115	-159.754695	-153.8370964	190.78495	-121.9100566	-190.1941127	220.9534054	-131.0066758	-184.6301972	212.1012136	-147.0355707	-172.4379712	200.9285076	-160.1639001	-162.2996548	188.3519886	-122.1977574	-190.4240581	210.8865106	-126.3520095	-192.4037232	211.1765769	-138.08014	-186.8020836	195.4979691	-146.3997433	-180.0223496	157.6242129	-102.3678705	-163.813783	-38.34940883	-129.0421863	-134.0788785	167.5361269	-85.42775113	-159.9689502	-34.38119052	-143.7207312	-121.0871654	0	0	0	206.3591842	-103.318604	-176.8840536	206.4391197	-124.3571943	-198.2330198	191.9350011	-129.1118409	-200.473773	190.1625473	-133.7927922	-206.2704862	185.2081951	-130.7739589	-208.2173312
92	14.65348617	192.5080797	-111.4473556	-164.942894	198.2937746	-103.0327451	-152.6254935	207.5345496	-112.7167822	-148.5228773	216.0358544	-124.9819875	-147.0084995	197.9138102	-113.5821908	-183.7222656	220.3814305	-120.7318476	-165.1726788	211.7720554	-137.267412	-157.9308907	203.491298	-152.0328071	-151.8147138	193.7139396	-117.3163602	-184.4670456	221.5755029	-131.2777489	-177.201385	212.2666076	-147.6767207	-164.0325323	200.0998519	-159.7627243	-153.7415494	190.7555403	-121.934996	-190.2183301	220.941469	-130.9633798	-184.6263682	212.1221923	-147.0007759	-172.4191091	200.9412125	-160.1263085	-162.2845065	188.322626	-122.2233909	-190.4480468	210.8632719	-126.351776	-192.4142264	211.1817295	-138.0724827	-186.7991837	195.4999178	-146.385882	-180.0190325	157.590762	-102.3969106	-163.8384317	-38.36924339	-129.0758711	-134.0416513	167.4984203	-85.453347	-159.9973164	-34.39573282	-143.7511251	-121.0475677	0	0	0	206.3103249	-103.3630607	-176.948902	206.4527182	-124.3805099	-198.2296902	191.948177	-129.1720553	-200.4771875	190.1703133	-133.8387486	-206.2794185	185.1951793	-130.8274168	-208.2298643
